<svg width="400" height="400" viewBox="0 0 400 400" xmlns="http://www.w3.org/2000/svg">
  <!-- TF2 Bronze Relief Background -->
  <circle cx="200" cy="200" r="200" fill="#5D1F0E" />

  <!-- TF2 Official Orange Quadrants -->
  <path fill="#EF6421" d="M245.3,26.6c77.3,19.7,134.4,89.8,134.4,173.2c0,1.9,0,3.8-0.1,5.7l-120.3-17.1c-3.5-18.1-15.3-33.3-31.2-41.5L245.3,26.6z M148,172.6c8.2-15.9,23.4-27.7,41.5-31.2l17.1-120.3c-1.9-0.1-3.8-0.1-5.7-0.1c-83.4,0-153.5,57.1-173.2,134.4L148,172.6z M173.7,252.8c-15.9-8.2-27.7-23.4-31.2-41.5L22.3,194.2c-0.1,1.9-0.1,3.8-0.1,5.7c0,83.4,57.1,153.5,134.4,173.2L173.7,252.8z M253.9,227.1c-8.2,15.9-23.4,27.7-41.5,31.2l-17.1,120.3c1.9,0.1,3.8,0.1,5.7,0.1c83.4,0,153.5-57.1,173.2-134.4L253.9,227.1z" />

  <!-- The "Pop" Checkmark: White with a Dark Outline -->
  <!-- The dark stroke prevents the white from 'melting' into the orange quadrants -->
  <path d="M85,215 L170,300 L325,120"
        fill="none"
        stroke="#2E1107"
        stroke-width="85"
        stroke-linecap="round"
        stroke-linejoin="round" />

  <path d="M85,215 L170,300 L325,120"
        fill="none"
        stroke="white"
        stroke-width="55"
        stroke-linecap="round"
        stroke-linejoin="round" />
</svg>
